<svg xmlns="http://www.w3.org/2000/svg" xmlns:xlink="http://www.w3.org/1999/xlink" width="150" zoomAndPan="magnify" viewBox="0 0 112.5 112.499997" height="150" preserveAspectRatio="xMidYMid meet" version="1.0"><defs><clipPath id="9a4e099a2c"><path d="M 0 15.996094 L 112.003906 15.996094 L 112.003906 24 L 0 24 Z M 0 15.996094 " clip-rule="nonzero"/></clipPath><clipPath id="c79214ca6f"><path d="M 0 63.726562 L 112.003906 63.726562 L 112.003906 71.925781 L 0 71.925781 Z M 0 63.726562 " clip-rule="nonzero"/></clipPath><clipPath id="c1ae6c3d0e"><path d="M 0 87.738281 L 80.128906 87.738281 L 80.128906 95.8125 L 0 95.8125 Z M 0 87.738281 " clip-rule="nonzero"/></clipPath></defs><g clip-path="url(#9a4e099a2c)"><path fill="#000000" d="M 108.007812 23.972656 L 4 23.972656 C 1.789062 23.972656 0 22.1875 0 19.984375 C 0 17.78125 1.789062 15.996094 4 15.996094 L 108.007812 15.996094 C 110.214844 15.996094 112.007812 17.78125 112.007812 19.984375 C 112.007812 22.1875 110.214844 23.972656 108.007812 23.972656 " fill-opacity="1" fill-rule="nonzero"/></g><path fill="#000000" d="M 76.003906 47.921875 L 4 47.921875 C 1.789062 47.921875 0 46.136719 0 43.933594 C 0 41.730469 1.789062 39.941406 4 39.941406 L 76.003906 39.941406 C 78.214844 39.941406 80.003906 41.730469 80.003906 43.933594 C 80.003906 46.136719 78.214844 47.921875 76.003906 47.921875 " fill-opacity="1" fill-rule="nonzero"/><g clip-path="url(#c79214ca6f)"><path fill="#000000" d="M 108.007812 71.867188 L 4 71.867188 C 1.789062 71.867188 0 70.082031 0 67.878906 C 0 65.675781 1.789062 63.886719 4 63.886719 L 108.007812 63.886719 C 110.214844 63.886719 112.007812 65.675781 112.007812 67.878906 C 112.007812 70.082031 110.214844 71.867188 108.007812 71.867188 " fill-opacity="1" fill-rule="nonzero"/></g><g clip-path="url(#c1ae6c3d0e)"><path fill="#000000" d="M 76.003906 95.8125 L 4 95.8125 C 1.789062 95.8125 0 94.027344 0 91.824219 C 0 89.621094 1.789062 87.835938 4 87.835938 L 76.003906 87.835938 C 78.214844 87.835938 80.003906 89.621094 80.003906 91.824219 C 80.003906 94.027344 78.214844 95.8125 76.003906 95.8125 " fill-opacity="1" fill-rule="nonzero"/></g></svg>