<svg xmlns="http://www.w3.org/2000/svg" xmlns:xlink="http://www.w3.org/1999/xlink" width="150" zoomAndPan="magnify" viewBox="0 0 112.5 112.499997" height="150" preserveAspectRatio="xMidYMid meet" version="1.0"><defs><clipPath id="c759accd6c"><path d="M 0 15.996094 L 112.003906 15.996094 L 112.003906 24 L 0 24 Z M 0 15.996094 " clip-rule="nonzero"/></clipPath><clipPath id="04d411097e"><path d="M 32 39 L 112.003906 39 L 112.003906 48 L 32 48 Z M 32 39 " clip-rule="nonzero"/></clipPath><clipPath id="f8d682aafc"><path d="M 0 63.726562 L 112.003906 63.726562 L 112.003906 71.925781 L 0 71.925781 Z M 0 63.726562 " clip-rule="nonzero"/></clipPath><clipPath id="ed0c7c270a"><path d="M 32 87.738281 L 112.003906 87.738281 L 112.003906 95.8125 L 32 95.8125 Z M 32 87.738281 " clip-rule="nonzero"/></clipPath></defs><g clip-path="url(#c759accd6c)"><path fill="#000000" d="M 3.992188 23.972656 L 108.003906 23.972656 C 110.210938 23.972656 112.003906 22.1875 112.003906 19.984375 C 112.003906 17.78125 110.210938 15.996094 108.003906 15.996094 L 3.992188 15.996094 C 1.785156 15.996094 -0.00390625 17.78125 -0.00390625 19.984375 C -0.00390625 22.1875 1.785156 23.972656 3.992188 23.972656 " fill-opacity="1" fill-rule="nonzero"/></g><g clip-path="url(#04d411097e)"><path fill="#000000" d="M 35.996094 47.921875 L 108.003906 47.921875 C 110.210938 47.921875 112.003906 46.136719 112.003906 43.933594 C 112.003906 41.730469 110.210938 39.941406 108.003906 39.941406 L 35.996094 39.941406 C 33.789062 39.941406 32 41.730469 32 43.933594 C 32 46.136719 33.789062 47.921875 35.996094 47.921875 " fill-opacity="1" fill-rule="nonzero"/></g><g clip-path="url(#f8d682aafc)"><path fill="#000000" d="M 3.992188 71.867188 L 108.003906 71.867188 C 110.210938 71.867188 112.003906 70.082031 112.003906 67.878906 C 112.003906 65.675781 110.210938 63.886719 108.003906 63.886719 L 3.992188 63.886719 C 1.785156 63.886719 -0.00390625 65.675781 -0.00390625 67.878906 C -0.00390625 70.082031 1.785156 71.867188 3.992188 71.867188 " fill-opacity="1" fill-rule="nonzero"/></g><g clip-path="url(#ed0c7c270a)"><path fill="#000000" d="M 35.996094 95.8125 L 108.003906 95.8125 C 110.210938 95.8125 112.003906 94.027344 112.003906 91.824219 C 112.003906 89.621094 110.210938 87.835938 108.003906 87.835938 L 35.996094 87.835938 C 33.789062 87.835938 32 89.621094 32 91.824219 C 32 94.027344 33.789062 95.8125 35.996094 95.8125 " fill-opacity="1" fill-rule="nonzero"/></g></svg>