<svg xmlns="http://www.w3.org/2000/svg" xmlns:xlink="http://www.w3.org/1999/xlink" width="150" zoomAndPan="magnify" viewBox="0 0 112.5 112.499997" height="150" preserveAspectRatio="xMidYMid meet" version="1.0"><defs><clipPath id="fed79b79d9"><path d="M 0.308594 5.601562 L 111.566406 5.601562 L 111.566406 106.402344 L 0.308594 106.402344 Z M 0.308594 5.601562 " clip-rule="nonzero"/></clipPath></defs><g clip-path="url(#fed79b79d9)"><path fill="#000000" d="M 82.425781 5.617188 C 82.777344 5.617188 83.117188 5.6875 83.441406 5.820312 C 83.765625 5.953125 84.050781 6.144531 84.300781 6.394531 C 84.546875 6.644531 84.738281 6.929688 84.875 7.253906 C 85.007812 7.582031 85.074219 7.917969 85.074219 8.269531 C 85.074219 8.621094 85.007812 8.960938 84.875 9.285156 C 84.738281 9.609375 84.546875 9.898438 84.300781 10.144531 C 84.050781 10.394531 83.765625 10.585938 83.441406 10.71875 C 83.117188 10.855469 82.777344 10.921875 82.425781 10.921875 L 29.449219 10.921875 C 29.097656 10.921875 28.757812 10.855469 28.433594 10.71875 C 28.109375 10.585938 27.824219 10.394531 27.574219 10.144531 C 27.328125 9.898438 27.136719 9.609375 27 9.285156 C 26.867188 8.960938 26.796875 8.621094 26.796875 8.269531 C 26.796875 7.917969 26.867188 7.582031 27 7.253906 C 27.136719 6.929688 27.328125 6.644531 27.574219 6.394531 C 27.824219 6.144531 28.109375 5.953125 28.433594 5.820312 C 28.757812 5.6875 29.097656 5.617188 29.449219 5.617188 Z M 108.914062 37.4375 L 2.957031 37.4375 C 2.605469 37.4375 2.269531 37.507812 1.945312 37.640625 C 1.621094 37.777344 1.332031 37.96875 1.085938 38.214844 C 0.835938 38.464844 0.644531 38.75 0.511719 39.074219 C 0.375 39.402344 0.308594 39.738281 0.308594 40.089844 C 0.308594 40.441406 0.375 40.78125 0.511719 41.105469 C 0.644531 41.429688 0.835938 41.71875 1.085938 41.964844 C 1.332031 42.214844 1.621094 42.40625 1.945312 42.539062 C 2.269531 42.675781 2.605469 42.742188 2.957031 42.742188 L 108.914062 42.742188 C 109.265625 42.742188 109.605469 42.675781 109.929688 42.539062 C 110.253906 42.40625 110.539062 42.214844 110.789062 41.964844 C 111.039062 41.71875 111.230469 41.429688 111.363281 41.105469 C 111.496094 40.78125 111.566406 40.441406 111.566406 40.089844 C 111.566406 39.738281 111.496094 39.402344 111.363281 39.074219 C 111.230469 38.75 111.039062 38.464844 110.789062 38.214844 C 110.539062 37.96875 110.253906 37.777344 109.929688 37.640625 C 109.605469 37.507812 109.265625 37.4375 108.914062 37.4375 Z M 82.425781 74.5625 C 82.777344 74.5625 83.117188 74.496094 83.441406 74.359375 C 83.765625 74.226562 84.050781 74.035156 84.300781 73.785156 C 84.546875 73.539062 84.738281 73.25 84.875 72.925781 C 85.007812 72.601562 85.074219 72.261719 85.074219 71.910156 C 85.074219 71.558594 85.007812 71.222656 84.875 70.898438 C 84.738281 70.570312 84.546875 70.285156 84.300781 70.035156 C 84.050781 69.789062 83.765625 69.597656 83.441406 69.460938 C 83.117188 69.328125 82.777344 69.257812 82.425781 69.257812 L 29.449219 69.257812 C 29.097656 69.257812 28.757812 69.328125 28.433594 69.460938 C 28.109375 69.597656 27.824219 69.789062 27.574219 70.035156 C 27.328125 70.285156 27.136719 70.570312 27 70.898438 C 26.867188 71.222656 26.796875 71.558594 26.796875 71.910156 C 26.796875 72.261719 26.867188 72.601562 27 72.925781 C 27.136719 73.25 27.328125 73.539062 27.574219 73.785156 C 27.824219 74.035156 28.109375 74.226562 28.433594 74.359375 C 28.757812 74.496094 29.097656 74.5625 29.449219 74.5625 Z M 108.914062 101.082031 L 2.957031 101.082031 C 2.605469 101.082031 2.269531 101.148438 1.945312 101.28125 C 1.621094 101.417969 1.332031 101.609375 1.085938 101.855469 C 0.835938 102.105469 0.644531 102.390625 0.511719 102.71875 C 0.375 103.042969 0.308594 103.378906 0.308594 103.730469 C 0.308594 104.082031 0.375 104.421875 0.511719 104.746094 C 0.644531 105.070312 0.835938 105.359375 1.085938 105.605469 C 1.332031 105.855469 1.621094 106.046875 1.945312 106.183594 C 2.269531 106.316406 2.605469 106.382812 2.957031 106.382812 L 108.914062 106.382812 C 109.265625 106.382812 109.605469 106.316406 109.929688 106.183594 C 110.253906 106.046875 110.539062 105.855469 110.789062 105.605469 C 111.039062 105.359375 111.230469 105.070312 111.363281 104.746094 C 111.496094 104.421875 111.566406 104.082031 111.566406 103.730469 C 111.566406 103.378906 111.496094 103.042969 111.363281 102.71875 C 111.230469 102.390625 111.039062 102.105469 110.789062 101.855469 C 110.539062 101.609375 110.253906 101.417969 109.929688 101.28125 C 109.605469 101.148438 109.265625 101.082031 108.914062 101.082031 Z M 108.914062 101.082031 " fill-opacity="1" fill-rule="nonzero"/></g></svg>