<svg xmlns="http://www.w3.org/2000/svg" xmlns:xlink="http://www.w3.org/1999/xlink" width="150" zoomAndPan="magnify" viewBox="0 0 112.5 112.499997" height="150" preserveAspectRatio="xMidYMid meet" version="1.0"><path fill="#d9d9d9" d="M 16.679688 109.582031 C 8.878906 105.648438 0.0117188 109.320312 2.800781 96.929688 C 4.542969 89.191406 33.3125 92.355469 40.15625 92.152344 C 45.648438 91.992188 55.941406 92.953125 63.050781 92.953125 C 68.917969 92.953125 99.949219 92.558594 102.519531 94.21875 C 108.066406 97.792969 105.394531 94.605469 105.394531 104.6875 C 105.394531 111.960938 78.710938 108.6875 71.5 108.6875 C 54.011719 108.6875 35.113281 106.390625 18.175781 109.511719 C 18.171875 109.511719 16.871094 109.679688 16.679688 109.582031 " fill-opacity="1" fill-rule="evenodd"/><path fill="#737373" d="M 16.679688 87.175781 C 16.417969 87.039062 9.800781 85.601562 6.066406 83.792969 C 4.375 82.976562 0.0703125 74.554688 7.246094 71.570312 C 10.324219 70.289062 37.125 69.714844 42.910156 69.195312 C 51.066406 68.460938 63.253906 70.050781 71.792969 68.21875 C 76.1875 67.277344 104.246094 70.835938 104.214844 71.617188 C 103.539062 87.070312 111.078125 87.085938 82.621094 87.085938 C 77.914062 87.085938 16.851562 87.269531 16.679688 87.175781 " fill-opacity="1" fill-rule="evenodd"/><path fill="#d9d9d9" d="M 3.390625 52.148438 C 3.917969 48.253906 33.222656 47.613281 38.195312 47.613281 C 45.550781 47.613281 104.792969 46.476562 106.007812 51.859375 C 106.3125 53.210938 106.714844 65.234375 102.738281 64.949219 C 102.59375 64.941406 94.945312 65.75 93.011719 65.75 C 79.4375 65.75 71.207031 65.273438 58.015625 64.394531 C 50.367188 63.882812 22.609375 66.136719 9.082031 64.773438 C 0.617188 63.921875 2.339844 59.871094 3.390625 52.148438 " fill-opacity="1" fill-rule="evenodd"/><path fill="#737373" d="M 2.660156 40.191406 C 1.722656 39.570312 2.023438 28.839844 2.660156 27.679688 C 6.128906 21.355469 64.046875 25.578125 73.191406 24.921875 C 76.679688 24.671875 103.328125 23.207031 103.328125 26.546875 C 103.328125 29.914062 105.808594 42.546875 103.917969 42.546875 C 82.171875 42.546875 62.074219 41.984375 39.347656 42.792969 C 33.046875 43.015625 22.257812 42.941406 16.019531 42.371094 C 11.460938 41.957031 6.453125 42.722656 2.660156 40.191406 " fill-opacity="1" fill-rule="evenodd"/><path fill="#d9d9d9" d="M 7.972656 19.96875 C 2.46875 19.65625 3.480469 13.289062 3.195312 7.207031 C 2.8125 -0.890625 104.214844 2.824219 104.214844 5.207031 C 104.214844 9.636719 107.144531 18.433594 102.738281 18.277344 C 102.691406 18.273438 94.050781 19.34375 90.605469 19.34375 C 65.746094 19.34375 31.550781 21.304688 7.972656 19.96875 " fill-opacity="1" fill-rule="evenodd"/></svg>