<svg xmlns="http://www.w3.org/2000/svg" xmlns:xlink="http://www.w3.org/1999/xlink" width="150" zoomAndPan="magnify" viewBox="0 0 112.5 112.499997" height="150" preserveAspectRatio="xMidYMid meet" version="1.0"><path fill="#000000" d="M 105.882812 6.890625 C 99.992188 1.011719 89.789062 1.011719 83.894531 6.890625 L 70.632812 20.160156 L 67.871094 17.40625 C 63.320312 12.863281 55.90625 12.863281 51.375 17.40625 C 46.824219 21.957031 46.824219 29.363281 51.375 33.910156 L 54.085938 36.625 L 13.425781 77.359375 L 12.726562 78.058594 C 12.304688 78.480469 11.984375 78.992188 11.792969 79.550781 L 9.285156 86.957031 L 4.488281 91.828125 C -0.0546875 96.359375 -0.0546875 103.757812 4.488281 108.292969 C 6.757812 110.5625 9.746094 111.699219 12.734375 111.699219 C 15.710938 111.699219 18.683594 110.570312 20.9375 108.308594 L 25.824219 103.484375 L 33.21875 100.972656 C 33.789062 100.777344 34.300781 100.460938 34.714844 100.039062 L 76.152344 58.667969 L 78.867188 61.382812 C 81.140625 63.65625 84.132812 64.796875 87.121094 64.796875 C 90.105469 64.796875 93.09375 63.664062 95.371094 61.382812 C 99.914062 56.839844 99.914062 49.4375 95.371094 44.886719 L 92.621094 42.132812 L 105.890625 28.863281 C 111.949219 22.820312 111.949219 12.957031 105.882812 6.890625 Z M 47.578125 76.222656 L 25.550781 76.222656 L 59.585938 42.125 L 70.648438 53.183594 Z M 47.578125 76.222656 " fill-opacity="1" fill-rule="nonzero"/></svg>