<svg xmlns="http://www.w3.org/2000/svg" xmlns:xlink="http://www.w3.org/1999/xlink" width="150" zoomAndPan="magnify" viewBox="0 0 112.5 112.499997" height="150" preserveAspectRatio="xMidYMid meet" version="1.0"><defs><clipPath id="c14a33f50e"><path d="M 9 0 L 103 0 L 103 112.003906 L 9 112.003906 Z M 9 0 " clip-rule="nonzero"/></clipPath></defs><g clip-path="url(#c14a33f50e)"><path fill="#000000" d="M 12.320312 27.136719 L 12.921875 27.746094 C 14.285156 27.746094 15.121094 27.769531 15.640625 27.769531 C 16.695312 27.769531 16.53125 27.667969 17.058594 27.066406 C 18.199219 17.566406 18.488281 14.585938 18.824219 13.316406 C 19.679688 10.21875 21.660156 10.191406 48.320312 10.191406 C 49.035156 30.355469 49.277344 92.65625 48.363281 99.496094 C 47.730469 104.199219 46.050781 104.601562 34.464844 105.027344 L 33.933594 105.480469 C 33.933594 109.863281 33.761719 109.042969 34.464844 109.84375 C 45.460938 109.507812 53.582031 109.394531 59.621094 109.394531 C 71.824219 109.394531 75.433594 109.863281 76.789062 109.863281 C 77.398438 109.863281 77.554688 109.765625 77.832031 109.488281 C 78.15625 109.167969 78.078125 109.191406 78.078125 105.90625 C 78.078125 105.402344 77.625 105.035156 77.214844 105.019531 C 60.8125 104.304688 63.167969 106.007812 63.011719 73.765625 C 62.757812 21.421875 62.855469 33.496094 63.613281 10.191406 C 67.117188 10.191406 71.273438 10.132812 75.335938 10.132812 C 83.679688 10.132812 91.609375 10.402344 92.65625 12.035156 C 93.175781 12.863281 93.644531 15.566406 94.125 20.132812 C 94.949219 28.117188 94.621094 26.804688 95.550781 27.746094 C 96.898438 27.746094 97.707031 27.761719 98.222656 27.761719 C 99.238281 27.761719 99.082031 27.675781 99.621094 27.136719 C 99.847656 0.328125 100.867188 4.050781 99.621094 2.808594 C 90.757812 3.214844 73.230469 3.417969 55.792969 3.417969 C 38.230469 3.417969 20.757812 3.214844 12.320312 2.808594 C 10.917969 4.199219 12.320312 0.0429688 12.320312 27.136719 Z M 65.132812 84.421875 C 65.082031 93.441406 65.046875 98.878906 66.257812 100.9375 C 66.953125 102.128906 68.613281 102.460938 72.136719 102.652344 C 72.152344 101.417969 72.222656 100.015625 72.320312 98.433594 C 72.328125 97.921875 72.351562 97.214844 72.378906 96.363281 C 72.542969 91.507812 72.882812 81.59375 72.242188 62.164062 C 69.167969 62.164062 66.855469 62.164062 65.097656 62.164062 C 65.117188 65.632812 65.132812 69.46875 65.152344 73.757812 C 65.167969 77.828125 65.152344 81.359375 65.132812 84.421875 Z M 80.214844 105.90625 L 80.226562 107.460938 C 80.234375 108.445312 80.234375 109.113281 80.113281 109.652344 C 80.554688 109.644531 81.007812 109.628906 81.503906 109.628906 C 81.574219 109.628906 81.652344 109.628906 81.722656 109.628906 C 85.929688 109.75 87.671875 109.835938 88.4375 109.835938 C 89.15625 109.835938 88.976562 109.757812 89.191406 109.550781 C 89.191406 107.359375 89.28125 107.738281 88.886719 107.4375 C 87.347656 107.375 83.582031 107.324219 82.652344 106.480469 C 80.808594 104.808594 81.878906 62.46875 81.957031 60.023438 C 92.8125 60.023438 95.925781 60.082031 96.472656 60.945312 C 96.890625 61.597656 97.089844 63.875 97.585938 68.460938 C 97.890625 68.765625 97.804688 68.808594 98.335938 68.808594 C 98.585938 68.808594 98.996094 68.800781 99.65625 68.800781 C 100.394531 68.058594 99.65625 63.363281 100.300781 56.664062 C 100.054688 56.429688 99.628906 56.34375 98.324219 56.34375 C 95.734375 56.34375 89.671875 56.664062 74.683594 56.664062 C 71.832031 56.664062 68.621094 56.648438 65.074219 56.621094 C 65.082031 57.710938 65.082031 58.839844 65.089844 60.023438 C 67.222656 60.023438 70.171875 60.023438 74.308594 60.023438 C 75.171875 84.316406 74.554688 94.40625 74.457031 98.5625 C 74.355469 100.199219 74.300781 101.566406 74.285156 102.757812 C 74.554688 102.765625 74.789062 102.773438 75.074219 102.792969 C 75.78125 102.816406 76.519531 102.84375 77.3125 102.878906 C 78.910156 102.949219 80.214844 104.304688 80.214844 105.90625 Z M 10.691406 1.382812 C 10.71875 1.363281 10.761719 1.335938 10.804688 1.292969 C 11.207031 0.894531 11.753906 0.667969 12.320312 0.667969 C 12.355469 0.667969 12.378906 0.667969 12.414062 0.667969 C 20.226562 1.042969 36.847656 1.277344 55.792969 1.277344 C 74.625 1.277344 91.382812 1.042969 99.527344 0.667969 C 99.550781 0.667969 99.585938 0.667969 99.621094 0.667969 C 100.1875 0.667969 100.734375 0.894531 101.136719 1.292969 C 102.464844 2.277344 102.421875 3.171875 102.292969 5.816406 C 102.152344 8.582031 101.867188 14.332031 101.761719 27.152344 C 101.761719 27.71875 101.535156 28.257812 101.136719 28.648438 C 101.066406 28.71875 101.023438 28.78125 100.976562 28.824219 C 100.160156 29.738281 99.402344 29.910156 98.222656 29.910156 L 97.464844 29.902344 C 96.984375 29.894531 96.378906 29.882812 95.550781 29.882812 C 94.984375 29.882812 94.4375 29.660156 94.039062 29.257812 C 93.976562 29.1875 93.925781 29.144531 93.878906 29.109375 C 92.765625 28.171875 92.707031 27.613281 92.359375 24.011719 C 92.261719 23.082031 92.148438 21.890625 91.992188 20.359375 C 91.488281 15.507812 91.089844 13.878906 90.90625 13.351562 C 89.984375 12.90625 86.679688 12.269531 75.335938 12.269531 C 73.242188 12.269531 71.109375 12.289062 69.058594 12.304688 C 67.898438 12.316406 66.769531 12.324219 65.683594 12.324219 C 65.558594 15.863281 65.464844 18.507812 65.378906 20.71875 C 65.046875 29.414062 64.96875 31.3125 65.0625 54.484375 C 68.429688 54.507812 71.65625 54.515625 74.683594 54.515625 C 85.242188 54.515625 91.324219 54.359375 94.949219 54.273438 C 96.472656 54.230469 97.550781 54.203125 98.324219 54.203125 C 99.8125 54.203125 100.933594 54.273438 101.8125 55.152344 C 102.265625 55.605469 102.492188 56.238281 102.429688 56.875 C 102.125 60.039062 102.144531 62.804688 102.152344 64.816406 C 102.171875 67.894531 102.179688 69.304688 101.167969 70.3125 C 100.769531 70.710938 100.230469 70.9375 99.65625 70.9375 C 99.257812 70.9375 98.960938 70.9375 98.726562 70.949219 L 98.335938 70.949219 C 97.507812 70.949219 96.8125 70.792969 96.132812 70.035156 C 95.785156 69.6875 95.507812 69.171875 95.457031 68.6875 L 95.28125 67.078125 C 95.074219 65.101562 94.882812 63.34375 94.714844 62.449219 C 93.175781 62.199219 88.871094 62.164062 84.035156 62.164062 C 83.738281 73.324219 83.390625 100.078125 84.347656 104.914062 C 85.0625 105.085938 86.445312 105.210938 88.480469 105.277344 L 88.976562 105.296875 C 89.410156 105.3125 89.820312 105.46875 90.167969 105.722656 C 91.359375 106.480469 91.351562 107.53125 91.332031 108.550781 C 91.332031 108.800781 91.332031 109.125 91.332031 109.550781 C 91.332031 110.054688 91.148438 110.539062 90.828125 110.921875 C 90.089844 111.976562 88.976562 111.976562 88.4375 111.976562 C 88.042969 111.976562 87.390625 111.957031 86.304688 111.925781 C 85.253906 111.878906 83.765625 111.828125 81.660156 111.777344 L 81.503906 111.777344 C 80.929688 111.777344 80.40625 111.785156 79.910156 111.792969 C 79.460938 111.800781 79.042969 111.8125 78.652344 111.8125 C 78.46875 111.8125 78.285156 111.8125 78.101562 111.800781 C 77.71875 111.933594 77.300781 112.003906 76.789062 112.003906 C 76.425781 112.003906 75.902344 111.96875 75.121094 111.925781 C 73.039062 111.792969 68.707031 111.53125 59.621094 111.53125 C 52.6875 111.53125 44.242188 111.679688 34.527344 111.984375 C 34.507812 111.984375 34.480469 111.984375 34.464844 111.984375 C 33.847656 111.984375 33.257812 111.722656 32.847656 111.253906 C 32.792969 111.203125 32.75 111.148438 32.707031 111.113281 C 31.75 110.140625 31.761719 109.445312 31.777344 107.566406 C 31.785156 107.054688 31.792969 106.375 31.792969 105.480469 C 31.792969 104.851562 32.0625 104.261719 32.542969 103.859375 L 33.074219 103.410156 C 33.4375 103.085938 33.898438 102.902344 34.378906 102.886719 C 45.796875 102.46875 45.851562 102.09375 46.234375 99.207031 C 47.078125 92.925781 46.9375 35.113281 46.25 12.332031 C 34.804688 12.332031 27.777344 12.359375 24.105469 12.722656 C 21.132812 13.019531 21.035156 13.382812 20.894531 13.878906 C 20.679688 14.6875 20.425781 16.828125 19.878906 21.507812 C 19.6875 23.109375 19.460938 25.023438 19.191406 27.320312 C 19.140625 27.753906 18.949219 28.152344 18.660156 28.484375 C 18.589844 28.5625 18.539062 28.632812 18.496094 28.683594 C 17.679688 29.71875 16.894531 29.910156 15.640625 29.910156 C 15.433594 29.910156 15.171875 29.910156 14.859375 29.902344 C 14.382812 29.894531 13.753906 29.882812 12.921875 29.882812 C 12.347656 29.882812 11.804688 29.660156 11.398438 29.257812 L 10.796875 28.648438 C 10.398438 28.25 10.171875 27.703125 10.171875 27.136719 C 10.171875 12.835938 9.789062 7.382812 9.625 5.050781 C 9.5 3.285156 9.433594 2.3125 10.691406 1.382812 " fill-opacity="1" fill-rule="nonzero"/></g></svg>