<svg xmlns="http://www.w3.org/2000/svg" xmlns:xlink="http://www.w3.org/1999/xlink" width="150" zoomAndPan="magnify" viewBox="0 0 112.5 112.499997" height="150" preserveAspectRatio="xMidYMid meet" version="1.0"><defs><clipPath id="7f69749c81"><path d="M 14.839844 33 L 84 33 L 84 112 L 14.839844 112 Z M 14.839844 33 " clip-rule="nonzero"/></clipPath><clipPath id="01c6c3d666"><path d="M 38 0 L 96.976562 0 L 96.976562 48 L 38 48 Z M 38 0 " clip-rule="nonzero"/></clipPath><clipPath id="dc670552ed"><path d="M 37 0 L 96.976562 0 L 96.976562 49 L 37 49 Z M 37 0 " clip-rule="nonzero"/></clipPath><clipPath id="578031d0be"><path d="M 72 7 L 96.976562 7 L 96.976562 49 L 72 49 Z M 72 7 " clip-rule="nonzero"/></clipPath><clipPath id="b3df1ec324"><path d="M 81 27 L 96.976562 27 L 96.976562 49 L 81 49 Z M 81 27 " clip-rule="nonzero"/></clipPath></defs><path fill="#c4c3c3" d="M 83.113281 39.269531 L 83.109375 35.417969 C 83.105469 35.15625 83.078125 34.898438 83.027344 34.648438 L 15.652344 34.945312 C 15.605469 35.195312 15.578125 35.453125 15.582031 35.71875 L 15.609375 39.570312 L 17.304688 39.5625 C 17.304688 39.570312 17.304688 39.59375 17.308594 39.628906 C 17.308594 39.699219 17.308594 39.773438 17.316406 39.851562 L 24.613281 108.226562 C 24.792969 109.921875 26.3125 111.289062 28 111.28125 L 71.355469 111.085938 C 73.046875 111.082031 74.550781 109.699219 74.714844 108.003906 L 81.296875 40.742188 L 81.300781 40.683594 L 81.300781 40.679688 L 81.410156 39.570312 C 81.417969 39.476562 81.421875 39.390625 81.417969 39.308594 L 81.421875 39.277344 L 83.113281 39.269531 " fill-opacity="1" fill-rule="nonzero"/><g clip-path="url(#7f69749c81)"><path fill="#330e12" d="M 83.113281 39.269531 L 83.832031 39.269531 L 83.828125 35.417969 L 83.828125 35.414062 C 83.824219 35.101562 83.792969 34.796875 83.734375 34.503906 L 83.617188 33.925781 L 15.058594 34.230469 L 14.949219 34.808594 C 14.894531 35.097656 14.863281 35.394531 14.863281 35.703125 L 14.863281 35.734375 L 15.582031 35.71875 L 14.863281 35.722656 L 14.894531 40.292969 L 17.308594 40.28125 L 17.304688 39.5625 L 16.585938 39.5625 L 16.585938 39.605469 C 16.589844 39.636719 16.589844 39.65625 16.589844 39.6875 L 17.308594 39.628906 L 16.589844 39.625 L 16.589844 39.660156 C 16.589844 39.730469 16.589844 39.824219 16.601562 39.929688 L 23.898438 108.304688 C 24.011719 109.34375 24.523438 110.261719 25.253906 110.921875 C 25.988281 111.582031 26.949219 112 27.988281 112 L 27.996094 112 L 27.992188 111.570312 L 27.988281 112 L 27.996094 112 L 27.992188 111.570312 L 27.988281 112 L 27.996094 111.378906 L 27.957031 112 L 27.988281 112 L 27.996094 111.378906 L 27.957031 112 L 27.976562 112 L 71.359375 111.808594 C 72.398438 111.804688 73.363281 111.378906 74.09375 110.710938 C 74.820312 110.042969 75.328125 109.117188 75.429688 108.074219 L 82.011719 40.8125 L 82.015625 40.757812 L 82.015625 40.742188 L 82.125 39.640625 L 82.125 39.636719 C 82.132812 39.546875 82.136719 39.464844 82.136719 39.386719 C 82.136719 39.351562 82.136719 39.320312 82.136719 39.292969 L 81.417969 39.308594 L 82.132812 39.371094 L 82.136719 39.339844 L 81.421875 39.277344 L 81.421875 39.996094 L 83.835938 39.988281 L 83.832031 39.269531 L 83.113281 39.269531 L 83.109375 38.550781 L 80.761719 38.5625 L 80.699219 39.289062 L 80.699219 39.386719 C 80.699219 39.425781 80.699219 39.460938 80.695312 39.5 L 80.585938 40.617188 L 80.585938 40.625 L 80.582031 40.667969 L 80.582031 40.671875 L 74 107.933594 C 73.9375 108.589844 73.609375 109.199219 73.121094 109.648438 C 72.636719 110.097656 72 110.367188 71.351562 110.367188 L 28 110.558594 L 28 111.28125 L 28.046875 110.5625 L 27.996094 110.558594 L 27.984375 110.558594 L 27.988281 110.847656 L 27.988281 110.558594 L 27.984375 110.558594 L 27.988281 110.847656 L 27.988281 110.558594 C 27.339844 110.5625 26.707031 110.296875 26.21875 109.851562 C 25.726562 109.410156 25.398438 108.800781 25.328125 108.152344 L 18.03125 39.777344 L 18.03125 39.773438 C 18.027344 39.746094 18.027344 39.714844 18.027344 39.660156 L 18.027344 39.601562 L 18.023438 39.570312 L 18.023438 39.535156 L 17.558594 39.5625 L 18.023438 39.5625 C 18.023438 39.53125 18.023438 39.535156 18.023438 39.535156 L 17.558594 39.5625 L 18.023438 39.5625 L 18.023438 38.839844 L 16.320312 38.84375 L 16.300781 35.703125 L 16.300781 35.699219 L 16.277344 35.699219 L 16.300781 35.703125 L 16.300781 35.699219 L 16.277344 35.699219 L 16.300781 35.703125 C 16.300781 35.492188 16.320312 35.285156 16.359375 35.082031 L 15.652344 34.945312 L 15.65625 35.667969 L 83.03125 35.367188 L 83.027344 34.648438 L 82.324219 34.792969 C 82.367188 34.996094 82.390625 35.207031 82.390625 35.421875 L 82.390625 35.417969 L 82.394531 39.273438 L 83.113281 39.269531 L 83.109375 38.550781 L 83.113281 39.269531 " fill-opacity="1" fill-rule="nonzero"/></g><path fill="#e7e6e6" d="M 31.726562 46.222656 C 31.632812 44.667969 29.945312 43.417969 27.960938 43.425781 C 25.976562 43.4375 24.476562 44.699219 24.609375 46.253906 L 29.484375 103.46875 C 29.617188 105.019531 31.003906 106.273438 32.585938 106.265625 C 34.167969 106.257812 35.371094 104.992188 35.273438 103.441406 L 31.726562 46.222656 " fill-opacity="1" fill-rule="nonzero"/><path fill="#330e12" d="M 31.726562 46.222656 L 32.445312 46.175781 C 32.414062 45.664062 32.25 45.183594 31.996094 44.761719 C 31.609375 44.125 31.027344 43.617188 30.335938 43.261719 C 29.644531 42.90625 28.835938 42.707031 27.980469 42.707031 L 27.929688 42.707031 L 27.960938 43.425781 L 27.957031 42.707031 C 26.863281 42.710938 25.867188 43.046875 25.125 43.632812 C 24.75 43.925781 24.441406 44.285156 24.222656 44.695312 C 24.003906 45.109375 23.882812 45.578125 23.882812 46.0625 C 23.882812 46.144531 23.886719 46.230469 23.894531 46.316406 L 23.894531 46.3125 L 28.765625 103.527344 C 28.851562 104.5 29.320312 105.363281 30.003906 105.980469 C 30.6875 106.601562 31.59375 106.984375 32.574219 106.984375 L 32.582031 106.984375 L 32.578125 106.523438 L 32.574219 106.984375 L 32.582031 106.984375 L 32.578125 106.523438 L 32.574219 106.984375 L 32.578125 106.355469 L 32.539062 106.984375 L 32.574219 106.984375 L 32.578125 106.355469 L 32.539062 106.984375 L 32.589844 106.984375 C 33.535156 106.980469 34.390625 106.613281 35.007812 106.003906 C 35.625 105.394531 36 104.542969 35.996094 103.617188 C 35.996094 103.542969 35.996094 103.46875 35.992188 103.398438 L 32.445312 46.175781 L 31.726562 46.222656 L 31.011719 46.265625 L 34.554688 103.484375 C 34.558594 103.53125 34.5625 103.574219 34.5625 103.617188 C 34.558594 104.15625 34.347656 104.628906 34 104.976562 C 33.648438 105.324219 33.160156 105.542969 32.582031 105.546875 L 32.585938 106.265625 L 32.632812 105.546875 L 32.570312 105.546875 L 32.574219 105.886719 L 32.574219 105.546875 L 32.570312 105.546875 L 32.574219 105.886719 L 32.574219 105.546875 C 31.976562 105.546875 31.402344 105.308594 30.96875 104.914062 C 30.53125 104.519531 30.246094 103.980469 30.199219 103.40625 L 25.324219 46.191406 C 25.320312 46.148438 25.320312 46.105469 25.320312 46.0625 C 25.320312 45.816406 25.378906 45.589844 25.492188 45.371094 C 25.664062 45.046875 25.972656 44.738281 26.398438 44.515625 C 26.820312 44.289062 27.359375 44.148438 27.964844 44.148438 L 27.984375 44.144531 L 27.992188 44.144531 L 27.972656 43.660156 L 27.972656 44.144531 L 27.992188 44.144531 L 27.972656 43.660156 L 27.972656 44.144531 L 27.980469 44.144531 C 28.816406 44.144531 29.585938 44.414062 30.128906 44.820312 C 30.402344 45.023438 30.617188 45.257812 30.765625 45.503906 C 30.910156 45.75 30.992188 46.003906 31.011719 46.265625 L 31.726562 46.222656 " fill-opacity="1" fill-rule="nonzero"/><path fill="#e7e6e6" d="M 45.875 46.160156 C 45.851562 44.605469 44.222656 43.355469 42.242188 43.363281 C 40.253906 43.371094 38.695312 44.636719 38.757812 46.191406 L 40.992188 103.417969 C 41.054688 104.96875 42.386719 106.222656 43.964844 106.214844 C 45.546875 106.207031 46.808594 104.941406 46.785156 103.390625 L 45.875 46.160156 " fill-opacity="1" fill-rule="nonzero"/><path fill="#330e12" d="M 45.875 46.160156 L 46.59375 46.148438 C 46.585938 45.636719 46.445312 45.148438 46.207031 44.71875 C 45.847656 44.074219 45.28125 43.558594 44.597656 43.203125 C 43.917969 42.84375 43.113281 42.644531 42.261719 42.644531 L 42.210938 42.644531 L 42.242188 43.363281 L 42.238281 42.644531 C 41.113281 42.648438 40.09375 43 39.324219 43.601562 C 38.941406 43.90625 38.621094 44.273438 38.394531 44.699219 C 38.164062 45.121094 38.035156 45.601562 38.035156 46.101562 C 38.035156 46.140625 38.039062 46.179688 38.039062 46.21875 L 40.277344 103.445312 C 40.3125 104.417969 40.75 105.292969 41.410156 105.921875 C 42.074219 106.546875 42.972656 106.933594 43.953125 106.933594 L 43.96875 106.933594 L 43.964844 106.804688 L 43.964844 106.933594 L 43.96875 106.933594 L 43.964844 106.804688 L 43.964844 106.933594 L 43.960938 106.296875 L 43.902344 106.933594 C 43.933594 106.933594 43.953125 106.933594 43.960938 106.933594 C 43.964844 106.933594 43.964844 106.933594 43.964844 106.933594 L 43.960938 106.296875 L 43.902344 106.933594 L 43.96875 106.933594 C 44.941406 106.933594 45.828125 106.542969 46.46875 105.910156 C 47.105469 105.28125 47.503906 104.402344 47.503906 103.433594 L 47.503906 103.378906 L 46.59375 46.148438 L 45.160156 46.171875 L 46.066406 103.402344 L 46.066406 103.398438 L 46.066406 103.433594 C 46.066406 104.003906 45.835938 104.507812 45.457031 104.882812 C 45.078125 105.257812 44.554688 105.492188 43.960938 105.496094 L 43.964844 106.214844 L 44.027344 105.496094 C 43.992188 105.496094 43.964844 105.496094 43.953125 105.496094 L 43.945312 105.496094 L 43.953125 106 L 43.953125 105.496094 L 43.945312 105.496094 L 43.953125 106 L 43.953125 105.496094 C 43.355469 105.496094 42.804688 105.257812 42.398438 104.871094 C 41.988281 104.484375 41.734375 103.960938 41.710938 103.386719 L 39.476562 46.160156 L 39.472656 46.101562 C 39.476562 45.847656 39.539062 45.609375 39.660156 45.378906 C 39.84375 45.03125 40.171875 44.707031 40.617188 44.472656 C 41.066406 44.234375 41.625 44.085938 42.242188 44.082031 L 42.269531 44.082031 L 42.25 43.625 L 42.25 44.082031 L 42.269531 44.082031 L 42.25 43.625 L 42.25 44.082031 L 42.261719 44.082031 C 43.097656 44.082031 43.847656 44.351562 44.359375 44.75 C 44.621094 44.949219 44.816406 45.179688 44.949219 45.417969 C 45.085938 45.660156 45.152344 45.90625 45.160156 46.171875 L 45.875 46.160156 " fill-opacity="1" fill-rule="nonzero"/><path fill="#e7e6e6" d="M 60.027344 46.097656 C 60.074219 44.542969 58.503906 43.289062 56.519531 43.300781 C 54.535156 43.308594 52.917969 44.574219 52.90625 46.128906 L 52.503906 103.367188 C 52.492188 104.917969 53.765625 106.171875 55.347656 106.164062 C 56.929688 106.15625 58.25 104.894531 58.296875 103.339844 L 60.027344 46.097656 " fill-opacity="1" fill-rule="nonzero"/><path fill="#330e12" d="M 60.027344 46.097656 L 60.742188 46.117188 C 60.742188 46.085938 60.746094 46.058594 60.746094 46.027344 C 60.746094 45.527344 60.617188 45.042969 60.386719 44.621094 C 60.046875 43.984375 59.496094 43.476562 58.832031 43.125 C 58.167969 42.773438 57.378906 42.578125 56.539062 42.578125 L 56.523438 42.578125 L 56.472656 42.582031 L 56.519531 43.300781 L 56.515625 42.578125 C 55.371094 42.585938 54.324219 42.949219 53.53125 43.566406 C 53.136719 43.875 52.804688 44.253906 52.566406 44.6875 C 52.332031 45.117188 52.191406 45.609375 52.1875 46.121094 L 51.785156 103.359375 L 51.785156 103.386719 C 51.785156 104.355469 52.183594 105.238281 52.828125 105.867188 C 53.46875 106.496094 54.359375 106.882812 55.332031 106.882812 L 55.332031 106.308594 L 55.28125 106.882812 L 55.332031 106.882812 L 55.332031 106.308594 L 55.28125 106.882812 L 55.351562 106.882812 C 56.332031 106.878906 57.234375 106.484375 57.890625 105.851562 C 58.550781 105.222656 58.984375 104.339844 59.011719 103.363281 L 60.742188 46.117188 L 60.027344 46.097656 L 59.308594 46.074219 L 57.578125 103.320312 C 57.558594 103.894531 57.304688 104.421875 56.898438 104.8125 C 56.492188 105.199219 55.941406 105.441406 55.34375 105.445312 L 55.347656 106.164062 L 55.414062 105.449219 C 55.378906 105.445312 55.351562 105.445312 55.332031 105.445312 C 54.738281 105.445312 54.214844 105.210938 53.832031 104.835938 C 53.453125 104.460938 53.222656 103.957031 53.222656 103.386719 L 53.222656 103.371094 L 53.625 46.132812 C 53.628906 45.871094 53.695312 45.621094 53.828125 45.378906 C 54.023438 45.015625 54.375 44.671875 54.84375 44.425781 C 55.3125 44.175781 55.890625 44.023438 56.519531 44.019531 L 56.5625 44.019531 L 56.53125 43.480469 L 56.53125 44.019531 L 56.5625 44.019531 L 56.53125 43.480469 L 56.53125 44.019531 L 56.53125 43.871094 L 56.53125 44.019531 L 56.53125 43.871094 L 56.53125 44.019531 L 56.539062 44.019531 C 57.363281 44.019531 58.082031 44.28125 58.570312 44.664062 C 58.8125 44.851562 59 45.074219 59.121094 45.300781 C 59.246094 45.53125 59.308594 45.773438 59.308594 46.027344 L 59.308594 46.074219 L 60.027344 46.097656 " fill-opacity="1" fill-rule="nonzero"/><path fill="#e7e6e6" d="M 74.175781 46.03125 C 74.292969 44.480469 72.78125 43.226562 70.796875 43.238281 C 68.8125 43.246094 67.136719 44.511719 67.054688 46.066406 L 64.015625 103.316406 C 63.929688 104.867188 65.144531 106.121094 66.726562 106.113281 C 68.308594 106.109375 69.6875 104.84375 69.804688 103.289062 L 74.175781 46.03125 " fill-opacity="1" fill-rule="nonzero"/><path fill="#330e12" d="M 74.175781 46.03125 L 74.890625 46.085938 C 74.898438 46.011719 74.898438 45.9375 74.898438 45.863281 C 74.902344 45.375 74.777344 44.90625 74.558594 44.496094 C 74.230469 43.875 73.695312 43.378906 73.050781 43.042969 C 72.402344 42.703125 71.640625 42.515625 70.816406 42.515625 L 70.804688 42.515625 L 70.75 42.519531 L 70.796875 43.238281 L 70.792969 42.515625 C 69.652344 42.523438 68.59375 42.886719 67.78125 43.496094 C 67.375 43.804688 67.03125 44.171875 66.777344 44.601562 C 66.523438 45.027344 66.363281 45.515625 66.335938 46.027344 L 63.296875 103.277344 C 63.292969 103.339844 63.292969 103.402344 63.292969 103.464844 C 63.289062 104.398438 63.667969 105.25 64.289062 105.859375 C 64.90625 106.46875 65.769531 106.835938 66.714844 106.835938 L 66.730469 106.832031 L 66.71875 106.234375 L 66.707031 106.832031 L 66.730469 106.832031 L 66.71875 106.234375 L 66.707031 106.832031 L 66.722656 106.15625 L 66.632812 106.828125 C 66.664062 106.832031 66.691406 106.832031 66.707031 106.832031 L 66.722656 106.15625 L 66.632812 106.828125 L 66.679688 106.835938 L 66.730469 106.835938 C 67.714844 106.828125 68.621094 106.4375 69.300781 105.8125 C 69.980469 105.1875 70.445312 104.320312 70.523438 103.34375 L 74.890625 46.085938 L 74.175781 46.03125 L 73.457031 45.980469 L 69.089844 103.234375 C 69.046875 103.8125 68.765625 104.351562 68.328125 104.75 C 67.894531 105.148438 67.324219 105.390625 66.726562 105.394531 L 66.726562 106.113281 L 66.824219 105.402344 C 66.773438 105.394531 66.738281 105.394531 66.722656 105.394531 L 66.707031 105.394531 L 66.714844 105.9375 L 66.714844 105.394531 L 66.707031 105.394531 L 66.714844 105.9375 L 66.714844 105.394531 C 66.136719 105.394531 65.648438 105.175781 65.292969 104.828125 C 64.941406 104.480469 64.730469 104.007812 64.730469 103.464844 C 64.730469 103.425781 64.730469 103.390625 64.730469 103.351562 L 67.773438 46.105469 C 67.785156 45.839844 67.867188 45.585938 68.015625 45.335938 C 68.234375 44.964844 68.609375 44.617188 69.09375 44.363281 C 69.578125 44.113281 70.171875 43.957031 70.800781 43.957031 L 70.84375 43.957031 L 70.808594 43.40625 L 70.8125 43.957031 L 70.84375 43.957031 L 70.808594 43.40625 L 70.8125 43.957031 L 70.808594 43.769531 L 70.808594 43.957031 L 70.8125 43.957031 L 70.808594 43.769531 L 70.808594 43.957031 L 70.816406 43.957031 C 71.621094 43.957031 72.308594 44.203125 72.769531 44.566406 C 73 44.746094 73.171875 44.953125 73.289062 45.171875 C 73.402344 45.390625 73.460938 45.617188 73.460938 45.863281 C 73.460938 45.902344 73.460938 45.9375 73.457031 45.980469 L 74.175781 46.03125 " fill-opacity="1" fill-rule="nonzero"/><path fill="#c4c3c3" d="M 61.1875 15.855469 L 65.558594 10.191406 C 66.1875 9.371094 67.359375 9.222656 68.175781 9.855469 L 81.4375 20.128906 C 82.253906 20.757812 82.402344 21.933594 81.773438 22.75 L 77.402344 28.417969 L 80.386719 30.730469 L 85.773438 23.75 C 87.230469 21.859375 86.882812 19.136719 84.996094 17.675781 L 69.644531 5.785156 C 67.761719 4.324219 65.042969 4.671875 63.585938 6.5625 L 58.203125 13.542969 L 61.1875 15.855469 " fill-opacity="1" fill-rule="nonzero"/><path fill="#330e12" d="M 61.1875 15.855469 L 61.757812 16.296875 L 66.125 10.628906 C 66.355469 10.335938 66.691406 10.183594 67.035156 10.183594 C 67.28125 10.183594 67.523438 10.261719 67.734375 10.421875 L 80.996094 20.699219 C 81.292969 20.925781 81.441406 21.261719 81.445312 21.609375 C 81.445312 21.855469 81.367188 22.097656 81.203125 22.3125 L 76.394531 28.546875 L 80.515625 31.742188 L 86.34375 24.1875 C 87.046875 23.273438 87.390625 22.183594 87.390625 21.105469 C 87.394531 19.597656 86.71875 18.101562 85.4375 17.105469 L 70.085938 5.214844 C 69.171875 4.503906 68.082031 4.160156 67.007812 4.160156 C 65.503906 4.160156 64.007812 4.835938 63.019531 6.121094 L 57.195312 13.671875 L 61.316406 16.867188 L 61.757812 16.296875 L 61.1875 15.855469 L 61.628906 15.285156 L 59.210938 13.414062 L 64.15625 7.003906 C 64.863281 6.082031 65.925781 5.601562 67.007812 5.601562 C 67.777344 5.601562 68.550781 5.84375 69.203125 6.351562 L 84.558594 18.246094 C 85.472656 18.957031 85.953125 20.023438 85.953125 21.105469 C 85.953125 21.878906 85.710938 22.652344 85.203125 23.308594 L 80.261719 29.71875 L 78.410156 28.289062 L 82.339844 23.191406 C 82.703125 22.722656 82.882812 22.160156 82.878906 21.609375 C 82.882812 20.835938 82.535156 20.066406 81.878906 19.558594 L 68.613281 9.285156 C 68.144531 8.917969 67.585938 8.742188 67.035156 8.742188 C 66.265625 8.742188 65.496094 9.089844 64.988281 9.75 L 60.621094 15.417969 L 61.1875 15.855469 L 61.628906 15.285156 L 61.1875 15.855469 " fill-opacity="1" fill-rule="nonzero"/><g clip-path="url(#01c6c3d666)"><path fill="#c4c3c3" d="M 92.167969 47.796875 C 92.214844 47.742188 92.265625 47.6875 92.308594 47.628906 L 95.382812 43.644531 C 96.710938 41.921875 96.394531 39.445312 94.675781 38.113281 L 47.472656 1.546875 C 45.753906 0.214844 43.285156 0.53125 41.957031 2.253906 L 38.882812 6.242188 C 38.835938 6.300781 38.796875 6.359375 38.757812 6.421875 L 92.167969 47.796875 " fill-opacity="1" fill-rule="nonzero"/></g><g clip-path="url(#dc670552ed)"><path fill="#330e12" d="M 92.167969 47.796875 L 92.710938 48.269531 C 92.742188 48.226562 92.804688 48.164062 92.878906 48.070312 L 95.953125 44.085938 C 96.605469 43.238281 96.925781 42.230469 96.925781 41.234375 C 96.925781 39.84375 96.300781 38.460938 95.117188 37.542969 L 47.914062 0.976562 C 47.070312 0.320312 46.0625 0 45.070312 0 C 43.683594 0 42.300781 0.625 41.386719 1.8125 L 38.332031 5.777344 L 38.3125 5.796875 C 38.238281 5.894531 38.195312 5.96875 38.160156 6.015625 L 37.78125 6.574219 L 92.265625 48.78125 L 92.710938 48.269531 L 92.167969 47.796875 L 92.605469 47.226562 L 39.195312 5.851562 L 38.757812 6.421875 L 39.347656 6.828125 C 39.402344 6.75 39.429688 6.707031 39.449219 6.683594 L 42.523438 2.695312 C 43.160156 1.871094 44.105469 1.445312 45.070312 1.441406 C 45.757812 1.441406 46.445312 1.660156 47.035156 2.117188 L 94.238281 38.683594 C 95.058594 39.316406 95.484375 40.269531 95.488281 41.234375 C 95.484375 41.925781 95.269531 42.613281 94.816406 43.203125 L 91.742188 47.191406 L 91.738281 47.191406 C 91.722656 47.214844 91.683594 47.257812 91.625 47.324219 L 92.167969 47.796875 L 92.605469 47.226562 L 92.167969 47.796875 " fill-opacity="1" fill-rule="nonzero"/></g><g clip-path="url(#578031d0be)"><path fill="#bdbcbd" d="M 92.265625 48.785156 L 89.714844 46.808594 L 92.265625 48.78125 L 92.710938 48.269531 C 92.722656 48.25 92.742188 48.230469 92.765625 48.203125 C 92.757812 48.210938 92.753906 48.21875 92.746094 48.226562 L 92.265625 48.785156 M 92.820312 48.144531 C 92.839844 48.121094 92.855469 48.097656 92.878906 48.070312 L 94.8125 45.5625 L 92.878906 48.070312 C 92.859375 48.09375 92.839844 48.117188 92.820312 48.144531 M 96.125 43.84375 C 96.664062 43.050781 96.925781 42.136719 96.925781 41.234375 C 96.925781 41.128906 96.921875 41.023438 96.914062 40.917969 C 96.984375 41.960938 96.710938 42.980469 96.125 43.84375 M 96.835938 40.332031 C 96.625 39.261719 96.042969 38.261719 95.117188 37.542969 L 83.175781 28.292969 L 95.117188 37.542969 C 96.015625 38.238281 96.621094 39.222656 96.835938 40.332031 M 84.617188 26.429688 L 86.34375 24.1875 C 86.859375 23.519531 87.183594 22.753906 87.316406 21.96875 C 87.183594 22.753906 86.859375 23.515625 86.34375 24.1875 L 84.617188 26.429688 M 80.625 23.0625 L 81.203125 22.308594 C 81.210938 22.300781 81.214844 22.292969 81.222656 22.285156 C 81.214844 22.296875 81.210938 22.304688 81.203125 22.3125 L 80.625 23.0625 M 87.316406 21.96875 C 87.316406 21.96875 87.320312 21.964844 87.320312 21.964844 C 87.320312 21.964844 87.316406 21.96875 87.316406 21.96875 M 81.253906 20.972656 C 81.183594 20.871094 81.101562 20.777344 81 20.699219 L 79.199219 19.304688 L 80.996094 20.699219 C 81.101562 20.777344 81.1875 20.871094 81.253906 20.972656 M 85.644531 17.277344 C 85.644531 17.277344 85.644531 17.277344 85.644531 17.273438 C 85.644531 17.277344 85.644531 17.277344 85.644531 17.277344 M 85.640625 17.273438 C 85.636719 17.273438 85.636719 17.269531 85.636719 17.269531 C 85.636719 17.269531 85.636719 17.273438 85.640625 17.273438 M 85.636719 17.269531 C 85.570312 17.214844 85.503906 17.160156 85.4375 17.105469 L 72.582031 7.148438 L 85.4375 17.105469 C 85.503906 17.160156 85.570312 17.214844 85.636719 17.269531 " fill-opacity="1" fill-rule="nonzero"/></g><path fill="#949293" d="M 82.039062 27.414062 L 81.964844 27.355469 C 81.71875 26.464844 81.457031 25.582031 81.175781 24.703125 L 82.339844 23.191406 C 82.703125 22.722656 82.882812 22.160156 82.878906 21.609375 C 82.882812 20.835938 82.535156 20.066406 81.878906 19.558594 L 78.011719 16.566406 C 77.484375 15.402344 76.925781 14.25 76.34375 13.105469 C 75.976562 12.378906 75.582031 11.667969 75.164062 10.96875 L 84.558594 18.246094 C 85.472656 18.957031 85.953125 20.023438 85.953125 21.105469 C 85.953125 21.878906 85.710938 22.652344 85.203125 23.308594 L 82.039062 27.414062 " fill-opacity="1" fill-rule="nonzero"/><path fill="#290b0d" d="M 83.175781 28.292969 L 82.039062 27.414062 L 85.203125 23.308594 C 85.710938 22.652344 85.953125 21.878906 85.953125 21.105469 C 85.953125 20.023438 85.472656 18.957031 84.558594 18.246094 L 75.164062 10.96875 C 74.457031 9.78125 73.679688 8.628906 72.855469 7.519531 C 72.765625 7.394531 72.671875 7.269531 72.582031 7.148438 L 85.4375 17.105469 C 85.503906 17.160156 85.570312 17.214844 85.636719 17.269531 C 85.636719 17.269531 85.636719 17.273438 85.640625 17.273438 C 85.640625 17.273438 85.640625 17.273438 85.644531 17.273438 C 85.644531 17.277344 85.644531 17.277344 85.644531 17.277344 C 87.023438 18.464844 87.609375 20.265625 87.320312 21.964844 C 87.320312 21.964844 87.316406 21.96875 87.316406 21.96875 C 87.183594 22.753906 86.859375 23.519531 86.34375 24.1875 L 84.617188 26.429688 L 83.175781 28.292969 M 81.175781 24.703125 C 80.996094 24.15625 80.816406 23.605469 80.625 23.0625 L 81.203125 22.3125 C 81.210938 22.304688 81.214844 22.296875 81.222656 22.285156 C 81.398438 22.046875 81.472656 21.757812 81.433594 21.460938 C 81.414062 21.285156 81.351562 21.117188 81.253906 20.972656 C 81.1875 20.871094 81.101562 20.777344 80.996094 20.699219 L 79.199219 19.304688 C 78.820312 18.386719 78.425781 17.472656 78.011719 16.566406 L 81.878906 19.558594 C 82.535156 20.066406 82.882812 20.835938 82.878906 21.609375 C 82.882812 22.160156 82.703125 22.722656 82.339844 23.191406 L 81.175781 24.703125 " fill-opacity="1" fill-rule="nonzero"/><path fill="#949293" d="M 92.046875 46.792969 L 84.101562 40.640625 C 83.933594 36.878906 83.394531 33.210938 82.546875 29.625 L 94.238281 38.683594 C 95.058594 39.316406 95.484375 40.269531 95.488281 41.234375 C 95.484375 41.925781 95.269531 42.613281 94.816406 43.203125 L 92.046875 46.792969 " fill-opacity="1" fill-rule="nonzero"/><g clip-path="url(#b3df1ec324)"><path fill="#290b0d" d="M 92.265625 48.78125 L 89.714844 46.808594 L 84.15625 42.5 C 84.15625 42.445312 84.15625 42.386719 84.15625 42.328125 C 84.144531 41.765625 84.128906 41.203125 84.101562 40.640625 L 92.046875 46.792969 L 94.816406 43.203125 C 95.269531 42.613281 95.484375 41.925781 95.488281 41.234375 C 95.484375 40.269531 95.058594 39.316406 94.238281 38.683594 L 82.546875 29.625 C 82.367188 28.863281 82.171875 28.109375 81.964844 27.355469 L 82.039062 27.414062 L 83.175781 28.292969 L 95.117188 37.542969 C 96.042969 38.261719 96.625 39.261719 96.835938 40.332031 C 96.855469 40.433594 96.875 40.535156 96.886719 40.640625 C 96.898438 40.734375 96.90625 40.824219 96.914062 40.917969 C 96.921875 41.023438 96.925781 41.128906 96.925781 41.234375 C 96.925781 42.136719 96.664062 43.050781 96.125 43.84375 C 96.070312 43.925781 96.011719 44.007812 95.953125 44.082031 L 94.8125 45.5625 L 92.878906 48.070312 C 92.855469 48.097656 92.839844 48.121094 92.820312 48.144531 C 92.800781 48.164062 92.785156 48.183594 92.765625 48.203125 C 92.742188 48.230469 92.722656 48.25 92.710938 48.269531 L 92.265625 48.78125 M 92.167969 47.796875 L 92.605469 47.226562 L 92.167969 47.796875 " fill-opacity="1" fill-rule="nonzero"/></g><path fill="#bdbcbd" d="M 27.988281 112 C 27.882812 112 27.777344 111.996094 27.675781 111.988281 C 27.777344 111.996094 27.882812 112 27.988281 112 L 27.996094 112 L 71.359375 111.808594 C 71.46875 111.808594 71.578125 111.800781 71.6875 111.792969 C 71.578125 111.800781 71.46875 111.808594 71.359375 111.808594 L 27.988281 112 M 23.925781 108.507812 C 23.917969 108.441406 23.90625 108.371094 23.898438 108.304688 C 23.90625 108.371094 23.917969 108.441406 23.925781 108.507812 M 75.382812 108.402344 C 75.40625 108.296875 75.417969 108.1875 75.429688 108.074219 L 79.492188 66.550781 L 75.429688 108.074219 C 75.421875 108.1875 75.40625 108.296875 75.382812 108.402344 " fill-opacity="1" fill-rule="nonzero"/><path fill="#949293" d="M 28.003906 110.558594 L 27.984375 110.558594 C 27.339844 110.558594 26.707031 110.292969 26.21875 109.851562 C 25.726562 109.410156 25.398438 108.800781 25.328125 108.152344 L 25.199219 106.921875 C 26.8125 106.640625 28.417969 106.328125 30.007812 105.984375 C 30.6875 106.597656 31.585938 106.980469 32.558594 106.984375 L 32.589844 106.984375 C 33.535156 106.980469 34.390625 106.613281 35.007812 106.003906 C 35.441406 105.574219 35.757812 105.023438 35.90625 104.40625 C 37.367188 103.945312 38.816406 103.433594 40.253906 102.886719 L 40.277344 103.445312 C 40.3125 104.417969 40.75 105.292969 41.410156 105.921875 C 42.070312 106.542969 42.960938 106.929688 43.933594 106.933594 L 43.96875 106.933594 C 44.941406 106.933594 45.828125 106.542969 46.46875 105.910156 C 47.105469 105.28125 47.503906 104.402344 47.503906 103.433594 L 47.503906 103.378906 L 47.445312 99.78125 C 48.328125 99.359375 49.203125 98.925781 50.066406 98.484375 C 50.660156 98.179688 51.246094 97.867188 51.828125 97.539062 L 51.785156 103.359375 L 51.785156 103.386719 C 51.785156 104.355469 52.183594 105.238281 52.828125 105.867188 C 53.464844 106.492188 54.34375 106.878906 55.308594 106.882812 L 55.351562 106.882812 C 56.332031 106.878906 57.234375 106.484375 57.890625 105.851562 C 58.550781 105.222656 58.984375 104.339844 59.011719 103.363281 L 59.34375 92.441406 C 60.960938 91.226562 62.554688 89.96875 64.074219 88.632812 L 63.296875 103.277344 C 63.292969 103.339844 63.292969 103.402344 63.292969 103.464844 C 63.289062 104.398438 63.667969 105.25 64.289062 105.859375 C 64.898438 106.460938 65.742188 106.824219 66.675781 106.832031 L 66.679688 106.835938 L 66.730469 106.835938 C 67.714844 106.828125 68.621094 106.4375 69.300781 105.8125 C 69.980469 105.1875 70.445312 104.320312 70.523438 103.34375 L 72.347656 79.4375 C 73.203125 78.273438 74.027344 77.09375 74.828125 75.910156 C 75.910156 74.308594 76.8125 72.613281 77.625 70.875 L 74 107.933594 C 73.9375 108.589844 73.609375 109.199219 73.121094 109.648438 C 72.636719 110.097656 72 110.367188 71.351562 110.367188 L 28.003906 110.558594 " fill-opacity="1" fill-rule="nonzero"/><path fill="#290b0d" d="M 27.988281 112 C 27.882812 112 27.777344 111.996094 27.675781 111.988281 C 25.832031 111.835938 24.222656 110.347656 23.925781 108.507812 C 23.917969 108.441406 23.90625 108.371094 23.898438 108.304688 L 23.777344 107.164062 C 24.253906 107.085938 24.726562 107.007812 25.199219 106.921875 L 25.328125 108.152344 C 25.398438 108.800781 25.726562 109.410156 26.21875 109.851562 C 26.707031 110.292969 27.339844 110.558594 27.984375 110.558594 L 28.003906 110.558594 L 71.351562 110.367188 C 72 110.367188 72.636719 110.097656 73.121094 109.648438 C 73.609375 109.199219 73.9375 108.589844 74 107.933594 L 77.625 70.875 C 78.289062 69.457031 78.894531 68.007812 79.492188 66.550781 L 75.429688 108.074219 C 75.417969 108.1875 75.40625 108.296875 75.382812 108.402344 C 75.054688 110.191406 73.488281 111.625 71.6875 111.792969 C 71.578125 111.800781 71.46875 111.808594 71.359375 111.808594 L 27.996094 112 L 27.988281 112 " fill-opacity="1" fill-rule="nonzero"/><path fill="#acabab" d="M 32.585938 105.546875 L 32.570312 105.546875 C 32.40625 105.546875 32.25 105.527344 32.09375 105.496094 C 32.726562 105.332031 33.359375 105.164062 33.992188 104.984375 C 33.640625 105.324219 33.15625 105.539062 32.585938 105.546875 " fill-opacity="1" fill-rule="nonzero"/><path fill="#290b0d" d="M 32.5625 106.984375 L 32.558594 106.984375 C 31.585938 106.980469 30.6875 106.597656 30.007812 105.984375 C 30.035156 105.976562 30.066406 105.972656 30.097656 105.964844 C 30.761719 105.820312 31.429688 105.664062 32.09375 105.496094 C 32.25 105.527344 32.40625 105.546875 32.570312 105.546875 L 32.585938 105.546875 C 33.15625 105.539062 33.640625 105.324219 33.992188 104.984375 C 34.632812 104.800781 35.269531 104.609375 35.90625 104.40625 C 35.757812 105.023438 35.441406 105.574219 35.007812 106.003906 C 34.390625 106.613281 33.535156 106.980469 32.589844 106.984375 L 32.5625 106.984375 " fill-opacity="1" fill-rule="nonzero"/><path fill="#acabab" d="M 43.976562 105.496094 C 43.96875 105.496094 43.960938 105.496094 43.957031 105.496094 C 43.957031 105.496094 43.953125 105.496094 43.953125 105.496094 L 43.945312 105.496094 C 43.351562 105.492188 42.804688 105.257812 42.398438 104.871094 C 41.988281 104.484375 41.734375 103.960938 41.710938 103.386719 L 41.671875 102.332031 C 43.136719 101.738281 44.589844 101.109375 46.019531 100.449219 L 46.066406 103.402344 L 46.066406 103.433594 C 46.066406 104.003906 45.835938 104.507812 45.457031 104.882812 C 45.082031 105.257812 44.5625 105.488281 43.976562 105.496094 " fill-opacity="1" fill-rule="nonzero"/><path fill="#290b0d" d="M 43.933594 106.933594 C 42.960938 106.929688 42.070312 106.542969 41.410156 105.921875 C 40.75 105.292969 40.3125 104.417969 40.277344 103.445312 L 40.253906 102.886719 C 40.726562 102.707031 41.199219 102.519531 41.671875 102.332031 L 41.710938 103.386719 C 41.734375 103.960938 41.988281 104.484375 42.398438 104.871094 C 42.804688 105.257812 43.351562 105.492188 43.945312 105.496094 L 43.953125 105.496094 C 43.953125 105.496094 43.957031 105.496094 43.957031 105.496094 C 43.960938 105.496094 43.96875 105.496094 43.976562 105.496094 C 44.5625 105.488281 45.082031 105.257812 45.457031 104.882812 C 45.835938 104.507812 46.066406 104.003906 46.066406 103.433594 L 46.066406 103.402344 L 46.019531 100.449219 C 46.496094 100.230469 46.972656 100.007812 47.445312 99.78125 L 47.503906 103.378906 L 47.503906 103.433594 C 47.503906 104.402344 47.105469 105.28125 46.46875 105.910156 C 45.828125 106.542969 44.941406 106.933594 43.96875 106.933594 L 43.933594 106.933594 " fill-opacity="1" fill-rule="nonzero"/><path fill="#acabab" d="M 55.363281 105.445312 C 55.355469 105.445312 55.34375 105.445312 55.335938 105.445312 C 55.335938 105.445312 55.335938 105.445312 55.332031 105.445312 C 54.738281 105.445312 54.214844 105.210938 53.832031 104.835938 C 53.453125 104.460938 53.222656 103.957031 53.222656 103.386719 L 53.222656 103.371094 L 53.269531 96.6875 C 54.339844 96.03125 55.386719 95.335938 56.40625 94.597656 C 56.894531 94.246094 57.382812 93.890625 57.871094 93.53125 L 57.578125 103.320312 C 57.558594 103.894531 57.304688 104.421875 56.898438 104.8125 C 56.496094 105.199219 55.953125 105.4375 55.363281 105.445312 " fill-opacity="1" fill-rule="nonzero"/><path fill="#290b0d" d="M 55.316406 106.882812 L 55.308594 106.882812 C 54.34375 106.878906 53.464844 106.492188 52.828125 105.867188 C 52.183594 105.238281 51.785156 104.355469 51.785156 103.386719 L 51.785156 103.359375 L 51.828125 97.539062 C 52.3125 97.261719 52.792969 96.980469 53.269531 96.6875 L 53.222656 103.371094 L 53.222656 103.386719 C 53.222656 103.957031 53.453125 104.460938 53.832031 104.835938 C 54.214844 105.210938 54.738281 105.445312 55.332031 105.445312 C 55.335938 105.445312 55.335938 105.445312 55.335938 105.445312 C 55.34375 105.445312 55.355469 105.445312 55.363281 105.445312 C 55.953125 105.4375 56.496094 105.199219 56.898438 104.8125 C 57.304688 104.421875 57.558594 103.894531 57.578125 103.320312 L 57.871094 93.53125 C 58.363281 93.171875 58.855469 92.808594 59.34375 92.441406 L 59.011719 103.363281 C 58.984375 104.339844 58.550781 105.222656 57.890625 105.851562 C 57.234375 106.484375 56.332031 106.878906 55.351562 106.882812 L 55.316406 106.882812 " fill-opacity="1" fill-rule="nonzero"/><path fill="#acabab" d="M 66.742188 105.394531 C 66.734375 105.394531 66.726562 105.394531 66.722656 105.394531 L 66.707031 105.394531 C 66.132812 105.390625 65.644531 105.175781 65.292969 104.828125 C 64.941406 104.480469 64.730469 104.007812 64.730469 103.464844 C 64.730469 103.425781 64.730469 103.390625 64.730469 103.351562 L 65.585938 87.253906 C 65.945312 86.914062 66.292969 86.570312 66.640625 86.21875 C 68.089844 84.75 69.453125 83.175781 70.746094 81.539062 L 69.089844 103.234375 C 69.046875 103.8125 68.765625 104.351562 68.328125 104.75 C 67.898438 105.144531 67.332031 105.386719 66.742188 105.394531 " fill-opacity="1" fill-rule="nonzero"/><path fill="#290b0d" d="M 66.679688 106.835938 L 66.675781 106.832031 C 65.742188 106.824219 64.898438 106.460938 64.289062 105.859375 C 63.667969 105.25 63.289062 104.398438 63.292969 103.464844 C 63.292969 103.402344 63.292969 103.339844 63.296875 103.277344 L 64.074219 88.632812 C 64.585938 88.179688 65.09375 87.722656 65.585938 87.253906 L 64.730469 103.351562 C 64.730469 103.390625 64.730469 103.425781 64.730469 103.464844 C 64.730469 104.007812 64.941406 104.480469 65.292969 104.828125 C 65.644531 105.175781 66.132812 105.390625 66.707031 105.394531 L 66.722656 105.394531 C 66.726562 105.394531 66.734375 105.394531 66.742188 105.394531 C 67.332031 105.386719 67.898438 105.144531 68.328125 104.75 C 68.765625 104.351562 69.046875 103.8125 69.089844 103.234375 L 70.746094 81.539062 C 71.289062 80.851562 71.824219 80.148438 72.347656 79.4375 L 70.523438 103.34375 C 70.445312 104.320312 69.980469 105.1875 69.300781 105.8125 C 68.621094 106.4375 67.714844 106.828125 66.730469 106.835938 L 66.679688 106.835938 " fill-opacity="1" fill-rule="nonzero"/></svg>