<svg xmlns="http://www.w3.org/2000/svg" xmlns:xlink="http://www.w3.org/1999/xlink" width="150" zoomAndPan="magnify" viewBox="0 0 112.5 112.499997" height="150" preserveAspectRatio="xMidYMid meet" version="1.0"><defs><clipPath id="027643a50a"><path d="M 9 0 L 103 0 L 103 112.003906 L 9 112.003906 Z M 9 0 " clip-rule="nonzero"/></clipPath></defs><g clip-path="url(#027643a50a)"><path fill="#000000" d="M 99.683594 27.136719 L 99.082031 27.746094 C 97.714844 27.746094 96.882812 27.769531 96.359375 27.769531 C 95.308594 27.769531 95.472656 27.667969 94.941406 27.066406 C 93.800781 17.566406 93.515625 14.585938 93.175781 13.316406 C 92.324219 10.21875 90.339844 10.191406 63.679688 10.191406 C 62.96875 30.355469 62.726562 92.65625 63.636719 99.496094 C 64.273438 104.199219 65.953125 104.601562 77.539062 105.027344 L 78.066406 105.480469 C 78.066406 109.863281 78.242188 109.042969 77.539062 109.84375 C 66.542969 109.507812 58.417969 109.394531 52.382812 109.394531 C 40.179688 109.394531 36.570312 109.863281 35.214844 109.863281 C 34.605469 109.863281 34.449219 109.765625 34.167969 109.488281 C 33.847656 109.167969 33.925781 109.191406 33.925781 105.90625 C 33.925781 105.402344 34.378906 105.035156 34.785156 105.019531 C 51.191406 104.304688 48.832031 106.007812 48.992188 73.765625 C 49.242188 21.421875 49.148438 33.496094 48.390625 10.191406 C 44.886719 10.191406 40.726562 10.132812 36.664062 10.132812 C 28.324219 10.132812 20.390625 10.402344 19.347656 12.035156 C 18.824219 12.863281 18.355469 15.566406 17.878906 20.132812 C 17.050781 28.117188 17.382812 26.804688 16.453125 27.746094 C 15.101562 27.746094 14.292969 27.761719 13.78125 27.761719 C 12.761719 27.761719 12.921875 27.675781 12.378906 27.136719 C 12.15625 0.328125 11.136719 4.050781 12.378906 2.808594 C 21.242188 3.214844 38.769531 3.417969 56.210938 3.417969 C 73.769531 3.417969 91.246094 3.214844 99.683594 2.808594 C 101.082031 4.199219 99.683594 0.0429688 99.683594 27.136719 Z M 46.867188 84.421875 C 46.921875 93.441406 46.957031 98.878906 45.746094 100.9375 C 45.050781 102.128906 43.390625 102.460938 39.867188 102.652344 C 39.847656 101.417969 39.78125 100.015625 39.683594 98.433594 C 39.675781 97.921875 39.648438 97.214844 39.621094 96.363281 C 39.457031 91.507812 39.117188 81.59375 39.761719 62.164062 C 42.832031 62.164062 45.144531 62.164062 46.902344 62.164062 C 46.886719 65.632812 46.867188 69.46875 46.851562 73.757812 C 46.832031 77.828125 46.851562 81.359375 46.867188 84.421875 Z M 31.785156 105.90625 L 31.777344 107.460938 C 31.769531 108.445312 31.769531 109.113281 31.890625 109.652344 C 31.445312 109.644531 30.996094 109.628906 30.5 109.628906 C 30.429688 109.628906 30.351562 109.628906 30.28125 109.628906 C 26.070312 109.75 24.332031 109.835938 23.566406 109.835938 C 22.84375 109.835938 23.027344 109.757812 22.808594 109.550781 C 22.808594 107.359375 22.722656 107.738281 23.113281 107.4375 C 24.652344 107.375 28.417969 107.324219 29.351562 106.480469 C 31.195312 104.808594 30.125 62.46875 30.046875 60.023438 C 19.191406 60.023438 16.078125 60.082031 15.53125 60.945312 C 15.113281 61.597656 14.910156 63.875 14.417969 68.460938 C 14.113281 68.765625 14.199219 68.808594 13.667969 68.808594 C 13.414062 68.808594 13.007812 68.800781 12.347656 68.800781 C 11.605469 68.058594 12.347656 63.363281 11.703125 56.664062 C 11.945312 56.429688 12.371094 56.34375 13.675781 56.34375 C 16.269531 56.34375 22.332031 56.664062 37.316406 56.664062 C 40.171875 56.664062 43.378906 56.648438 46.929688 56.621094 C 46.921875 57.710938 46.921875 58.839844 46.910156 60.023438 C 44.78125 60.023438 41.832031 60.023438 37.691406 60.023438 C 36.832031 84.316406 37.449219 94.40625 37.542969 98.5625 C 37.648438 100.199219 37.699219 101.566406 37.71875 102.757812 C 37.449219 102.765625 37.214844 102.773438 36.925781 102.792969 C 36.222656 102.816406 35.484375 102.84375 34.691406 102.878906 C 33.089844 102.949219 31.785156 104.304688 31.785156 105.90625 Z M 101.308594 1.382812 C 101.28125 1.363281 101.238281 1.335938 101.195312 1.292969 C 100.796875 0.894531 100.246094 0.667969 99.683594 0.667969 C 99.648438 0.667969 99.621094 0.667969 99.585938 0.667969 C 91.777344 1.042969 75.152344 1.277344 56.210938 1.277344 C 37.378906 1.277344 20.617188 1.042969 12.476562 0.667969 C 12.449219 0.667969 12.414062 0.667969 12.378906 0.667969 C 11.816406 0.667969 11.265625 0.894531 10.867188 1.292969 C 9.535156 2.277344 9.578125 3.171875 9.710938 5.816406 C 9.847656 8.582031 10.136719 14.332031 10.242188 27.152344 C 10.242188 27.71875 10.46875 28.257812 10.867188 28.648438 C 10.9375 28.71875 10.980469 28.78125 11.023438 28.824219 C 11.839844 29.738281 12.597656 29.910156 13.78125 29.910156 L 14.539062 29.902344 C 15.015625 29.894531 15.625 29.882812 16.453125 29.882812 C 17.015625 29.882812 17.566406 29.660156 17.964844 29.257812 C 18.027344 29.1875 18.078125 29.144531 18.121094 29.109375 C 19.234375 28.171875 19.296875 27.613281 19.644531 24.011719 C 19.738281 23.082031 19.851562 21.890625 20.007812 20.359375 C 20.511719 15.507812 20.914062 13.878906 21.097656 13.351562 C 22.019531 12.90625 25.324219 12.269531 36.664062 12.269531 C 38.761719 12.269531 40.894531 12.289062 42.945312 12.304688 C 44.101562 12.316406 45.234375 12.324219 46.320312 12.324219 C 46.441406 15.863281 46.539062 18.507812 46.625 20.71875 C 46.957031 29.414062 47.035156 31.3125 46.9375 54.484375 C 43.570312 54.507812 40.34375 54.515625 37.316406 54.515625 C 26.757812 54.515625 20.679688 54.359375 17.050781 54.273438 C 15.53125 54.230469 14.449219 54.203125 13.675781 54.203125 C 12.1875 54.203125 11.066406 54.273438 10.1875 55.152344 C 9.738281 55.605469 9.511719 56.238281 9.570312 56.875 C 9.875 60.039062 9.859375 62.804688 9.847656 64.816406 C 9.832031 67.894531 9.824219 69.304688 10.832031 70.3125 C 11.234375 70.710938 11.773438 70.9375 12.347656 70.9375 C 12.746094 70.9375 13.042969 70.9375 13.277344 70.949219 L 13.667969 70.949219 C 14.496094 70.949219 15.191406 70.792969 15.867188 70.035156 C 16.214844 69.6875 16.496094 69.171875 16.546875 68.6875 L 16.722656 67.078125 C 16.929688 65.101562 17.121094 63.34375 17.285156 62.449219 C 18.824219 62.199219 23.132812 62.164062 27.96875 62.164062 C 28.261719 73.324219 28.609375 100.078125 27.65625 104.914062 C 26.941406 105.085938 25.558594 105.210938 23.523438 105.277344 L 23.027344 105.296875 C 22.59375 105.3125 22.183594 105.46875 21.835938 105.722656 C 20.644531 106.480469 20.652344 107.53125 20.667969 108.550781 C 20.667969 108.800781 20.667969 109.125 20.667969 109.550781 C 20.667969 110.054688 20.851562 110.539062 21.175781 110.921875 C 21.914062 111.976562 23.027344 111.976562 23.566406 111.976562 C 23.957031 111.976562 24.609375 111.957031 25.699219 111.925781 C 26.75 111.878906 28.238281 111.828125 30.34375 111.777344 L 30.5 111.777344 C 31.074219 111.777344 31.59375 111.785156 32.089844 111.792969 C 32.542969 111.800781 32.960938 111.8125 33.351562 111.8125 C 33.535156 111.8125 33.71875 111.8125 33.898438 111.800781 C 34.28125 111.933594 34.699219 112.003906 35.214844 112.003906 C 35.578125 112.003906 36.101562 111.96875 36.882812 111.925781 C 38.960938 111.792969 43.292969 111.53125 52.382812 111.53125 C 59.316406 111.53125 67.761719 111.679688 77.476562 111.984375 C 77.492188 111.984375 77.519531 111.984375 77.539062 111.984375 C 78.15625 111.984375 78.746094 111.722656 79.15625 111.253906 C 79.207031 111.203125 79.25 111.148438 79.292969 111.113281 C 80.25 110.140625 80.242188 109.445312 80.226562 107.566406 C 80.214844 107.054688 80.207031 106.375 80.207031 105.480469 C 80.207031 104.851562 79.9375 104.261719 79.460938 103.859375 L 78.929688 103.410156 C 78.5625 103.085938 78.101562 102.902344 77.625 102.886719 C 66.203125 102.46875 66.152344 102.09375 65.769531 99.207031 C 64.925781 92.925781 65.0625 35.113281 65.75 12.332031 C 77.199219 12.332031 84.226562 12.359375 87.898438 12.722656 C 90.871094 13.019531 90.96875 13.382812 91.105469 13.878906 C 91.324219 14.6875 91.574219 16.828125 92.125 21.507812 C 92.316406 23.109375 92.542969 25.023438 92.8125 27.320312 C 92.863281 27.753906 93.054688 28.152344 93.339844 28.484375 C 93.410156 28.5625 93.464844 28.632812 93.507812 28.683594 C 94.324219 29.71875 95.105469 29.910156 96.359375 29.910156 C 96.570312 29.910156 96.828125 29.910156 97.144531 29.902344 C 97.621094 29.894531 98.246094 29.882812 99.082031 29.882812 C 99.65625 29.882812 100.195312 29.660156 100.605469 29.257812 L 101.203125 28.648438 C 101.605469 28.25 101.832031 27.703125 101.832031 27.136719 C 101.832031 12.835938 102.214844 7.382812 102.378906 5.050781 C 102.5 3.285156 102.570312 2.3125 101.308594 1.382812 " fill-opacity="1" fill-rule="nonzero"/></g></svg>