<svg xmlns="http://www.w3.org/2000/svg" xmlns:xlink="http://www.w3.org/1999/xlink" width="150" zoomAndPan="magnify" viewBox="0 0 112.5 112.499997" height="150" preserveAspectRatio="xMidYMid meet" version="1.0"><path fill="#000000" d="M 55.867188 -0.125 C 55.257812 -0.117188 54.65625 -0.0507812 54.0625 0.078125 C 53.46875 0.203125 52.894531 0.386719 52.335938 0.628906 C 51.777344 0.871094 51.25 1.164062 50.75 1.507812 C 50.25 1.851562 49.785156 2.242188 49.363281 2.675781 C 48.941406 3.113281 48.5625 3.585938 48.234375 4.09375 C 47.902344 4.605469 47.625 5.140625 47.398438 5.707031 C 47.175781 6.269531 47.007812 6.851562 46.898438 7.449219 C 46.789062 8.046875 46.738281 8.648438 46.746094 9.257812 L 46.746094 46.28125 L 9.71875 46.28125 C 9.105469 46.273438 8.496094 46.324219 7.894531 46.4375 C 7.292969 46.550781 6.707031 46.71875 6.136719 46.949219 C 5.566406 47.175781 5.027344 47.460938 4.511719 47.796875 C 4 48.132812 3.527344 48.515625 3.089844 48.945312 C 2.652344 49.375 2.261719 49.847656 1.917969 50.355469 C 1.574219 50.863281 1.285156 51.398438 1.046875 51.964844 C 0.8125 52.53125 0.632812 53.113281 0.511719 53.714844 C 0.390625 54.316406 0.332031 54.925781 0.332031 55.539062 C 0.332031 56.152344 0.390625 56.757812 0.511719 57.359375 C 0.632812 57.960938 0.8125 58.546875 1.046875 59.109375 C 1.285156 59.675781 1.574219 60.214844 1.917969 60.722656 C 2.261719 61.230469 2.652344 61.699219 3.089844 62.128906 C 3.527344 62.5625 4 62.945312 4.511719 63.28125 C 5.027344 63.617188 5.566406 63.898438 6.136719 64.128906 C 6.707031 64.355469 7.292969 64.527344 7.894531 64.640625 C 8.496094 64.75 9.105469 64.804688 9.71875 64.792969 L 46.746094 64.792969 L 46.746094 101.820312 C 46.734375 102.433594 46.789062 103.042969 46.898438 103.644531 C 47.011719 104.246094 47.183594 104.832031 47.410156 105.402344 C 47.640625 105.972656 47.921875 106.511719 48.257812 107.027344 C 48.59375 107.539062 48.976562 108.015625 49.410156 108.449219 C 49.839844 108.886719 50.308594 109.277344 50.816406 109.621094 C 51.324219 109.964844 51.863281 110.253906 52.429688 110.492188 C 52.992188 110.726562 53.578125 110.90625 54.179688 111.027344 C 54.78125 111.148438 55.386719 111.207031 56 111.207031 C 56.613281 111.207031 57.222656 111.148438 57.824219 111.027344 C 58.425781 110.90625 59.007812 110.726562 59.574219 110.492188 C 60.140625 110.253906 60.675781 109.964844 61.183594 109.621094 C 61.691406 109.277344 62.164062 108.886719 62.59375 108.449219 C 63.023438 108.015625 63.40625 107.539062 63.742188 107.027344 C 64.078125 106.511719 64.363281 105.972656 64.589844 105.402344 C 64.820312 104.832031 64.988281 104.246094 65.101562 103.644531 C 65.214844 103.042969 65.265625 102.433594 65.257812 101.820312 L 65.257812 64.792969 L 102.28125 64.792969 C 102.894531 64.804688 103.503906 64.75 104.109375 64.640625 C 104.710938 64.527344 105.296875 64.355469 105.867188 64.128906 C 106.433594 63.898438 106.976562 63.617188 107.488281 63.28125 C 108 62.945312 108.476562 62.5625 108.914062 62.128906 C 109.351562 61.699219 109.738281 61.230469 110.082031 60.722656 C 110.425781 60.214844 110.71875 59.675781 110.953125 59.109375 C 111.191406 58.546875 111.371094 57.960938 111.488281 57.359375 C 111.609375 56.757812 111.671875 56.152344 111.671875 55.539062 C 111.671875 54.925781 111.609375 54.316406 111.488281 53.714844 C 111.371094 53.113281 111.191406 52.53125 110.953125 51.964844 C 110.71875 51.398438 110.425781 50.863281 110.082031 50.355469 C 109.738281 49.847656 109.351562 49.375 108.914062 48.945312 C 108.476562 48.515625 108 48.132812 107.488281 47.796875 C 106.976562 47.460938 106.433594 47.175781 105.867188 46.949219 C 105.296875 46.71875 104.710938 46.550781 104.109375 46.4375 C 103.503906 46.324219 102.894531 46.273438 102.28125 46.28125 L 65.257812 46.28125 L 65.257812 9.257812 C 65.265625 8.636719 65.214844 8.023438 65.097656 7.414062 C 64.984375 6.808594 64.808594 6.21875 64.578125 5.644531 C 64.34375 5.070312 64.054688 4.527344 63.714844 4.011719 C 63.371094 3.496094 62.980469 3.019531 62.542969 2.582031 C 62.105469 2.144531 61.628906 1.753906 61.113281 1.410156 C 60.597656 1.070312 60.050781 0.78125 59.480469 0.550781 C 58.90625 0.316406 58.3125 0.144531 57.707031 0.03125 C 57.097656 -0.0820312 56.484375 -0.136719 55.867188 -0.125 Z M 55.867188 -0.125 " fill-opacity="1" fill-rule="nonzero"/></svg>