<svg xmlns="http://www.w3.org/2000/svg" xmlns:xlink="http://www.w3.org/1999/xlink" width="150" zoomAndPan="magnify" viewBox="0 0 112.5 112.499997" height="150" preserveAspectRatio="xMidYMid meet" version="1.0"><path fill="#1a1a1a" d="M 102.667969 102.664062 L 93.328125 102.664062 L 93.328125 72.332031 C 93.328125 70.386719 92.652344 68.734375 91.289062 67.371094 C 89.929688 66.011719 88.277344 65.328125 86.332031 65.328125 L 25.664062 65.328125 C 23.71875 65.328125 22.070312 66.011719 20.703125 67.371094 C 19.34375 68.734375 18.664062 70.386719 18.664062 72.332031 L 18.664062 102.664062 L 9.335938 102.664062 L 9.335938 9.332031 L 18.664062 9.332031 L 18.664062 39.664062 C 18.664062 41.609375 19.34375 43.261719 20.703125 44.625 C 22.070312 45.984375 23.71875 46.664062 25.664062 46.664062 L 67.664062 46.664062 C 69.609375 46.664062 71.265625 45.984375 72.625 44.625 C 73.984375 43.261719 74.664062 41.609375 74.664062 39.664062 L 74.664062 9.332031 C 75.394531 9.332031 76.34375 9.574219 77.511719 10.058594 C 78.675781 10.546875 79.503906 11.035156 79.988281 11.519531 L 100.476562 32.011719 C 100.96875 32.492188 101.453125 33.332031 101.9375 34.527344 C 102.421875 35.714844 102.667969 36.648438 102.667969 37.332031 Z M 84 102.664062 L 27.996094 102.664062 L 27.996094 74.664062 L 84 74.664062 Z M 46.667969 11.667969 C 46.667969 11.035156 46.898438 10.488281 47.355469 10.023438 C 47.820312 9.566406 48.367188 9.332031 49 9.332031 L 63 9.332031 C 63.628906 9.332031 64.175781 9.5625 64.640625 10.023438 C 65.105469 10.488281 65.328125 11.035156 65.328125 11.667969 L 65.328125 35 C 65.328125 35.632812 65.097656 36.179688 64.640625 36.640625 C 64.175781 37.097656 63.628906 37.332031 63 37.332031 L 49 37.332031 C 48.367188 37.332031 47.820312 37.097656 47.355469 36.640625 C 46.898438 36.179688 46.667969 35.632812 46.667969 35 Z M 110.539062 30.914062 C 109.566406 28.582031 108.402344 26.734375 107.039062 25.371094 L 86.621094 4.960938 C 85.261719 3.59375 83.414062 2.429688 81.082031 1.457031 C 78.746094 0.484375 76.609375 0 74.664062 0 L 7 0 C 5.054688 0 3.402344 0.679688 2.039062 2.039062 C 0.679688 3.398438 0 5.054688 0 7 L 0 104.996094 C 0 106.941406 0.679688 108.597656 2.039062 109.957031 C 3.402344 111.316406 5.054688 111.996094 7 111.996094 L 104.996094 111.996094 C 106.941406 111.996094 108.597656 111.316406 109.957031 109.957031 C 111.316406 108.597656 111.996094 106.941406 111.996094 104.996094 L 111.996094 37.332031 C 111.996094 35.386719 111.511719 33.25 110.539062 30.914062 " fill-opacity="1" fill-rule="nonzero"/></svg>