<svg xmlns="http://www.w3.org/2000/svg" xmlns:xlink="http://www.w3.org/1999/xlink" width="150" zoomAndPan="magnify" viewBox="0 0 112.5 112.499997" height="150" preserveAspectRatio="xMidYMid meet" version="1.0"><defs><clipPath id="344c70c5f2"><path d="M 0.253906 49 L 112.003906 49 L 112.003906 95.667969 L 0.253906 95.667969 Z M 0.253906 49 " clip-rule="nonzero"/></clipPath></defs><path fill="#040606" d="M 68.785156 56.015625 C 69.253906 60.382812 73.140625 63.574219 77.496094 63.105469 L 104.472656 60.152344 C 106.585938 59.914062 108.46875 58.851562 109.769531 57.199219 C 111.070312 55.550781 111.65625 53.421875 111.417969 51.304688 L 108.46875 24.265625 C 108.003906 19.898438 104.113281 16.707031 99.761719 17.183594 C 95.40625 17.652344 92.21875 21.550781 92.695312 25.914062 L 93.640625 34.417969 L 90.691406 32.648438 L 84.800781 29.574219 C 82.804688 28.628906 80.800781 27.804688 78.796875 26.859375 C 70.671875 23.558594 62.082031 21.3125 53.480469 20.136719 C 44.878906 18.953125 36.167969 18.835938 27.566406 19.898438 C 23.328125 20.367188 19.09375 21.203125 14.847656 22.148438 C 10.730469 23.082031 6.601562 24.503906 2.722656 25.914062 C 0.957031 26.511719 -0.101562 28.519531 0.363281 30.410156 C 0.839844 32.410156 2.953125 33.710938 4.957031 33.125 C 8.964844 32.179688 12.617188 31.34375 16.625 30.757812 C 20.503906 30.171875 24.390625 29.933594 28.28125 29.8125 C 36.046875 29.695312 43.828125 30.519531 51.355469 32.289062 C 58.894531 34.058594 66.078125 36.785156 72.796875 40.324219 L 77.734375 43.160156 L 82.449219 46.222656 L 82.804688 46.460938 L 75.859375 47.167969 C 71.734375 47.644531 68.785156 51.066406 68.785156 55.070312 C 68.667969 55.429688 68.667969 55.789062 68.785156 56.015625 " fill-opacity="1" fill-rule="nonzero"/><g clip-path="url(#344c70c5f2)"><path fill="#040606" d="M 12.496094 95.683594 C 16.851562 95.207031 20.035156 91.320312 19.558594 86.945312 L 18.617188 78.453125 L 21.5625 80.222656 L 27.457031 83.285156 C 29.449219 84.230469 31.453125 85.054688 33.460938 86 C 41.585938 89.308594 50.175781 91.546875 58.777344 92.730469 C 67.367188 93.914062 76.089844 94.035156 84.679688 92.96875 C 88.925781 92.503906 93.164062 91.667969 97.410156 90.722656 C 101.527344 89.777344 105.644531 88.367188 109.542969 86.945312 C 111.296875 86.355469 112.359375 84.347656 111.894531 82.457031 C 111.417969 80.449219 109.292969 79.15625 107.300781 79.742188 C 103.292969 80.6875 99.640625 81.523438 95.632812 82.109375 C 91.753906 82.699219 87.863281 82.9375 83.984375 83.054688 C 76.207031 83.164062 68.429688 82.339844 60.898438 80.578125 C 53.359375 78.800781 46.175781 76.085938 39.460938 72.542969 L 34.519531 69.710938 L 29.808594 66.648438 L 29.449219 66.410156 L 36.40625 65.703125 C 40.761719 65.226562 43.933594 61.328125 43.46875 56.960938 C 43.003906 52.597656 39.113281 49.414062 34.757812 49.882812 L 7.902344 52.835938 C 5.789062 53.074219 3.90625 54.128906 2.605469 55.789062 C 1.425781 57.199219 0.839844 58.96875 0.839844 60.742188 L 0.839844 61.566406 L 3.785156 88.605469 C 4.253906 92.96875 8.140625 96.160156 12.496094 95.683594 " fill-opacity="1" fill-rule="nonzero"/></g></svg>